# xmcd
#
# Track frame offsets: 
#        150
#        13080
#        38787
#        55162
#        69147
#        84267
#        98372
#        116762
#        133190
#        154817
#        165200
#        180210
#        192605
#        208965
#        222522
#        252312
#        266075
#        283790
#        310727
#        325952
#
# Disc length: 4658 seconds
#
# Revision: 3
# Processed by: cddbd v1.5.2PL0 Copyright (c) Steve Scherf et al.
# Submitted via: ExactAudioCopy v0.99pb4
#
DISCID=1b123014
DTITLE=Muddy Waters - Fathers and Sons
DYEAR=1969
DGENRE=Chicago Blues
TTITLE0=All Aboard
TTITLE1=Mean Disposition
TTITLE2=Blow Wind Blow
TTITLE3=Can't Lose What You Ain't Never Had
TTITLE4=Walking thru the Park
TTITLE5=Forty Days and Forty Nights
TTITLE6=Standin' Round Cryin'
TTITLE7=I'm Ready
TTITLE8=Twenty Four Hours
TTITLE9=Sugar Sweet
TTITLE10=Country Boy
TTITLE11=I Love the Life I Live (I Live the Life I Love)
TTITLE12=Oh Yeah
TTITLE13=I Feel So Good
TTITLE14=Long Distance Call
TTITLE15=Baby, Please Don't Go
TTITLE16=Honey Bee
TTITLE17=The Same Thing
TTITLE18=Got My Mojo Working, Part 1
TTITLE19=Got My Mojo Working, Part 2
EXTD=Muddy Waters [McKinley Moganfield, 1915/1983]: vocals, guitar\nMi
EXTD=ke Bloomfield [1943/1981]: guitar\nPaul Butterfield [1942/1987]: 
EXTD=harmonica\nOtis Spann [1930/1970]: piano\nDonald "Duck" Dunn [b.1
EXTD=941] (ex track 1), Phil Upchurch [b.1941] (1): bass\nSam Lay [b.1
EXTD=935] (ex 20), Buddy Miles [1947/2008] (20): drums\nJeff Carp (1):
EXTD=chromatic harmonica\nPaul Asbell (5,6,10): rhythm guitar\nTracks
EXTD=1-14 recorded at Chess Records' Ter-Mar Studios, Chicago US-IL, 
EXTD=1969-04-21/23 - engineered by Ron Malo.\nTracks 15-20 recorded liv
EXTD=e in concert at the Super Cosmic Joy Jamboree, Chicago US-IL, 196
EXTD=9-04-24 - engineered by Reice Hamel.\nProduced by Norman Dayron.\n
EXTD=Tracks 1-10,15-20 originally issued as Chess LPS-127 (1969-08-18)
EXTD=album supervised by Marshall Chess.\nTrack 14 originally issued
EXTD=as Chess single 2085.\nTracks 11-13 previously unissued.\nReissu
EXTD=e produced by Andy McKaie.\nRemastered by Erick Labson at Univers
EXTD=al Mastering-West, North Hollywood US-CA.\nCD: MCA/Chess 12648 (2
EXTD=001-10-31), UPC 008811264826, BMG D141811.
EXTT0=(McKinley Moganfield)
EXTT1=(McKinley Moganfield)
EXTT2=(McKinley Moganfield)
EXTT3=(McKinley Moganfield)
EXTT4=(McKinley Moganfield)
EXTT5=(Bernard Roth)
EXTT6=(McKinley Moganfield)
EXTT7=(Willie Dixon)
EXTT8=(Eddie Boyd)
EXTT9=(Melvin London)
EXTT10=(McKinley Moganfield)
EXTT11=(Willie Dixon)
EXTT12=(Willie Dixon)
EXTT13=(Bill Broonzy)
EXTT14=(McKinley Moganfield)
EXTT15=(McKinley Moganfield)
EXTT16=(McKinley Moganfield)
EXTT17=(Willie Dixon)
EXTT18=(Preston Foster)
EXTT19=(Preston Foster)
PLAYORDER=
